<svg xmlns="http://www.w3.org/2000/svg" version="1.1" xmlns:xlink="http://www.w3.org/1999/xlink" xmlns:svgjs="http://svgjs.dev/svgjs" width="2000" height="429" viewBox="0 0 2000 429"><g transform="matrix(1,0,0,1,-1.2121212121212466,-0.640166835270918)"><svg viewBox="0 0 396 85" data-background-color="#dedede" preserveAspectRatio="xMidYMid meet" height="429" width="2000" xmlns="http://www.w3.org/2000/svg" xmlns:xlink="http://www.w3.org/1999/xlink"><g id="tight-bounds" transform="matrix(1,0,0,1,0.2400000000000091,0.12683958274598695)"><svg viewBox="0 0 395.52 84.74632083450801" height="84.74632083450801" width="395.52"><g><svg viewBox="0 0 395.52 84.74632083450801" height="84.74632083450801" width="395.52"><g><svg viewBox="0 0 395.52 84.74632083450801" height="84.74632083450801" width="395.52"><g id="textblocktransform"><svg viewBox="0 0 395.52 84.74632083450801" height="84.74632083450801" width="395.52" id="textblock"><g><svg viewBox="0 0 395.52 84.74632083450801" height="84.74632083450801" width="395.52"><g transform="matrix(1,0,0,1,0,0)"><svg width="395.52" viewBox="1.05 -37.5 177.33999999999997 38" height="84.74632083450801" data-palette-color="#000000"><path d="M1.05-34.05L1.05-35 16-35Q22.95-35 26.43-33.13 29.9-31.25 29.9-26.8L29.9-26.8Q29.9-19.95 21.65-18.6L21.65-18.6 21.65-18.5Q31.65-17.25 31.65-9.8L31.65-9.8Q31.65-4.35 27.55-2.18 23.45 0 15.75 0L15.75 0 1.05 0 1.05-0.95 4.3-0.95 4.3-34.05 1.05-34.05ZM15.2-17.7L14.05-17.7 14.05-0.95 16.4-0.95Q19.15-0.95 20.25-2.85 21.35-4.75 21.35-8.45L21.35-8.45 21.35-11.1Q21.35-14.4 20-16.05 18.65-17.7 15.2-17.7L15.2-17.7ZM15.65-34.05L14.05-34.05 14.05-18.65 15.35-18.65Q17.95-18.65 18.98-20.23 20-21.8 20-25.05L20-25.05 20-27.4Q20-31.1 19.1-32.58 18.2-34.05 15.65-34.05L15.65-34.05ZM49.6-9.85L49.6-9.85 49.6-14.1Q49.6-18.95 49.07-21.18 48.55-23.4 46.65-23.4L46.65-23.4Q45.55-23.4 44.87-22.78 44.2-22.15 43.9-20.7L43.9-20.7Q43.45-18.45 43.45-13.85L43.45-13.85 43.45-9.95Q43.45-4.5 43.77-3.4 44.1-2.3 44.45-1.6L44.45-1.6Q45-0.4 46.6-0.4L46.6-0.4Q48.55-0.4 49.15-2.65L49.15-2.65Q49.6-4.25 49.6-9.85ZM46.5 0.5Q40.25 0.5 37.05-2.7 33.85-5.9 33.85-11.88 33.85-17.85 37.27-21.08 40.7-24.3 46.9-24.3 53.1-24.3 56.15-21.33 59.2-18.35 59.2-12.25L59.2-12.25Q59.2 0.5 46.5 0.5L46.5 0.5ZM60.6-36.6L60.6-37.5 72.65-37.5 72.65-19.2Q73.45-21.5 75.1-22.9 76.75-24.3 80.1-24.3L80.1-24.3Q87.85-24.3 87.85-15.95L87.85-15.95 87.85-0.9 90.65-0.9 90.65 0 76.5 0 76.5-0.9 78.55-0.9 78.55-17.15Q78.55-20.15 78.15-21.03 77.75-21.9 76.7-21.9L76.7-21.9Q75.1-21.9 73.87-19.8 72.65-17.7 72.65-14.7L72.65-14.7 72.65-0.9 74.8-0.9 74.8 0 60.6 0 60.6-0.9 63.35-0.9 63.35-36.6 60.6-36.6ZM101.54-10.35Q101.54-5.1 102.09-3.38 102.64-1.65 104.12-1.65 105.59-1.65 106.67-2.95 107.74-4.25 107.74-6.8L107.74-6.8 107.74-17.7Q107.74-19.85 106.89-21.35 106.04-22.85 104.39-22.85 102.74-22.85 102.14-20.65 101.54-18.45 101.54-12.95L101.54-12.95 101.54-10.35ZM119.49 0L108.39 0 107.84-3.5Q106.14 0.5 100.94 0.5L100.94 0.5Q96.64 0.5 94.27-2.6 91.89-5.7 91.89-11.85L91.89-11.85Q91.89-24.3 101.79-24.3L101.79-24.3Q106.19-24.3 107.59-21.85L107.59-21.85 107.59-36.6 104.54-36.6 104.54-37.5 117.04-37.5 117.04-0.9 119.49-0.9 119.49 0ZM132.79-11.75L132.79-11.75 134.24-11.75 134.24-15.6Q134.24-20.35 133.72-21.98 133.19-23.6 131.69-23.6L131.69-23.6Q130.79-23.6 130.07-23.13 129.34-22.65 129.34-21.83 129.34-21 129.64-20.15L129.64-20.15 130.89-20.15Q131.29-19.1 131.29-17.63 131.29-16.15 130.04-15.08 128.79-14 126.89-14L126.89-14Q122.59-14 122.59-18.15L122.59-18.15Q122.59-24.3 133.04-24.3L133.04-24.3Q138.99-24.3 141.27-22.28 143.54-20.25 143.54-14.85L143.54-14.85 143.54-4.7Q143.54-2.1 144.99-2.1L144.99-2.1Q146.69-2.1 146.99-7.25L146.99-7.25 147.74-7.2Q147.54-2.8 146.09-1.15 144.64 0.5 141.34 0.5L141.34 0.5Q135.34 0.5 134.44-3.2L134.44-3.2Q133.79-1.3 132.49-0.4 131.19 0.5 128.69 0.5L128.69 0.5Q121.29 0.5 121.29-5.55L121.29-5.55Q121.29-9.1 124.12-10.43 126.94-11.75 132.79-11.75ZM130.79-5.6Q130.79-3 131.07-2.25 131.34-1.5 132.12-1.5 132.89-1.5 133.57-2.78 134.24-4.05 134.24-6.3L134.24-6.3 134.24-10.95 133.89-10.95Q130.79-10.95 130.79-6.4L130.79-6.4 130.79-5.6ZM148.34-22.9L148.34-23.8 160.39-23.8 160.39-19.2Q161.19-21.5 162.84-22.9 164.49-24.3 167.84-24.3L167.84-24.3Q175.59-24.3 175.59-15.95L175.59-15.95 175.59-0.9 178.39-0.9 178.39 0 164.24 0 164.24-0.9 166.29-0.9 166.29-17.15Q166.29-20.15 165.89-21.03 165.49-21.9 164.44-21.9L164.44-21.9Q162.84-21.9 161.61-19.8 160.39-17.7 160.39-14.7L160.39-14.7 160.39-0.9 162.54-0.9 162.54 0 148.34 0 148.34-0.9 151.09-0.9 151.09-22.9 148.34-22.9Z" opacity="1" transform="matrix(1,0,0,1,0,0)" fill="#ffffff" class="wordmark-text-0" data-fill-palette-color="primary" id="text-0"></path></svg></g></svg></g></svg></g></svg></g><g></g></svg></g><defs></defs></svg><rect width="395.52" height="84.74632083450801" fill="none" stroke="none" visibility="hidden"></rect></g></svg></g></svg>